<?xml version="1.0" encoding="UTF-8" standalone="no"?>
<!-- Created with Inkscape (http://www.inkscape.org/) -->

<svg
   inkscape:export-ydpi="90.000000"
   inkscape:export-xdpi="90.000000"
   width="480"
   height="300"
   id="svg11300"
   sodipodi:version="0.32"
   inkscape:version="1.3.2 (091e20ef0f, 2023-11-25)"
   sodipodi:docname="tauon.svg"
   inkscape:output_extension="org.inkscape.output.svg.inkscape"
   version="1.0"
   style="display:inline;enable-background:new"
   inkscape:export-filename="/home/sam/moka-next-template.png"
   xmlns:inkscape="http://www.inkscape.org/namespaces/inkscape"
   xmlns:sodipodi="http://sodipodi.sourceforge.net/DTD/sodipodi-0.dtd"
   xmlns:xlink="http://www.w3.org/1999/xlink"
   xmlns="http://www.w3.org/2000/svg"
   xmlns:svg="http://www.w3.org/2000/svg"
   xmlns:rdf="http://www.w3.org/1999/02/22-rdf-syntax-ns#"
   xmlns:cc="http://creativecommons.org/ns#"
   xmlns:dc="http://purl.org/dc/elements/1.1/">
  <sodipodi:namedview
     stroke="#ef2929"
     fill="#f57900"
     id="base"
     pagecolor="#777777"
     bordercolor="#666666"
     borderopacity="0.25490196"
     inkscape:pageopacity="0"
     inkscape:pageshadow="2"
     inkscape:zoom="2"
     inkscape:cx="431.5"
     inkscape:cy="142.25"
     inkscape:current-layer="layer6"
     showgrid="false"
     inkscape:grid-bbox="true"
     inkscape:document-units="px"
     inkscape:showpageshadow="false"
     inkscape:window-width="1840"
     inkscape:window-height="1011"
     inkscape:window-x="0"
     inkscape:window-y="0"
     width="400px"
     height="300px"
     inkscape:snap-nodes="true"
     inkscape:snap-bbox="true"
     gridtolerance="10000"
     inkscape:object-nodes="true"
     inkscape:snap-grids="true"
     showguides="true"
     inkscape:guide-bbox="true"
     inkscape:window-maximized="1"
     inkscape:bbox-nodes="true"
     inkscape:bbox-paths="true"
     inkscape:snap-bbox-edge-midpoints="true"
     inkscape:snap-bbox-midpoints="true"
     inkscape:pagecheckerboard="0"
     inkscape:deskcolor="#d1d1d1">
    <inkscape:grid
       spacingy="1px"
       spacingx="1px"
       id="grid5883"
       type="xygrid"
       enabled="true"
       visible="false"
       empspacing="4"
       snapvisiblegridlinesonly="true"
       dotted="false"
       color="#000000"
       opacity="0.1254902"
       empcolor="#203ef3"
       empopacity="0.36470588"
       originx="0"
       originy="0"
       units="px" />
    <inkscape:grid
       type="xygrid"
       id="grid11592"
       empspacing="8"
       visible="false"
       enabled="false"
       spacingx="0.5px"
       spacingy="0.5px"
       color="#ff0000"
       opacity="0.1254902"
       empcolor="#ff0000"
       empopacity="0.25098039"
       snapvisiblegridlinesonly="true"
       dotted="true"
       originx="0"
       originy="0"
       units="px" />
  </sodipodi:namedview>
  <defs
     id="defs3">
    <linearGradient
       id="linearGradient4">
      <stop
         style="stop-color:#8476f1;stop-opacity:1;"
         offset="0"
         id="stop3" />
      <stop
         style="stop-color:#ffffff;stop-opacity:1;"
         offset="1"
         id="stop4" />
    </linearGradient>
    <linearGradient
       id="linearGradient2">
      <stop
         style="stop-color:#8476f1;stop-opacity:1;"
         offset="0"
         id="stop1" />
      <stop
         style="stop-color:#d33ed8;stop-opacity:1;"
         offset="1"
         id="stop2" />
    </linearGradient>
    <linearGradient
       inkscape:collect="always"
       xlink:href="#linearGradient2"
       id="linearGradient4254"
       x1="74"
       y1="86"
       x2="214"
       y2="226"
       gradientUnits="userSpaceOnUse"
       gradientTransform="rotate(-90,144,156)" />
    <linearGradient
       inkscape:collect="always"
       xlink:href="#linearGradient2"
       id="linearGradient4256"
       x1="419"
       y1="143"
       x2="429"
       y2="153"
       gradientUnits="userSpaceOnUse"
       gradientTransform="rotate(-90,424,148)" />
    <linearGradient
       inkscape:collect="always"
       xlink:href="#linearGradient2"
       id="linearGradient4260"
       x1="422"
       y1="58"
       x2="442"
       y2="78"
       gradientUnits="userSpaceOnUse"
       gradientTransform="rotate(-90,432,68)" />
    <linearGradient
       inkscape:collect="always"
       xlink:href="#linearGradient2"
       id="linearGradient4262"
       x1="299"
       y1="231"
       x2="325"
       y2="257"
       gradientUnits="userSpaceOnUse"
       gradientTransform="rotate(-90,312,244)" />
    <linearGradient
       inkscape:collect="always"
       xlink:href="#linearGradient2"
       id="linearGradient4264"
       x1="308"
       y1="48"
       x2="364"
       y2="104"
       gradientUnits="userSpaceOnUse"
       gradientTransform="rotate(-90,336,76)" />
    <linearGradient
       inkscape:collect="always"
       xlink:href="#linearGradient2"
       id="linearGradient4266"
       x1="302"
       y1="154"
       x2="338"
       y2="190"
       gradientUnits="userSpaceOnUse"
       gradientTransform="rotate(-90,320,172)" />
    <linearGradient
       inkscape:collect="always"
       xlink:href="#linearGradient2"
       id="linearGradient3870"
       gradientUnits="userSpaceOnUse"
       gradientTransform="rotate(-90,428,112)"
       x1="421"
       y1="105"
       x2="435"
       y2="119" />
    <linearGradient
       id="outerBackgroundGradient-2">
      <stop
         style="stop-color:#440a3e;stop-opacity:1"
         offset="0"
         id="stop3864-8-6-44" />
      <stop
         style="stop-color:#f50ddc;stop-opacity:1"
         offset="1"
         id="stop3866-9-1-70" />
    </linearGradient>
    <linearGradient
       xlink:href="#a-6"
       id="b-3"
       x1="71.509125"
       x2="55.41832"
       y1="14.516761"
       y2="39.33279"
       gradientTransform="matrix(3.1671422,0,0,3.1674871,-191.51548,-111.58527)"
       gradientUnits="userSpaceOnUse" />
    <linearGradient
       id="a-6">
      <stop
         offset="0"
         style="stop-color:#ef2acf;stop-opacity:1;"
         id="stop6" />
      <stop
         offset="1"
         style="stop-color:#ffffff;stop-opacity:1;"
         id="stop7" />
    </linearGradient>
  </defs>
  <metadata
     id="metadata4">
    <rdf:RDF>
      <cc:Work
         rdf:about="">
        <dc:format>image/svg+xml</dc:format>
        <dc:type
           rdf:resource="http://purl.org/dc/dcmitype/StillImage" />
        <dc:creator>
          <cc:Agent>
            <dc:title>Sam Hewitt</dc:title>
          </cc:Agent>
        </dc:creator>
        <dc:source />
        <cc:license
           rdf:resource="" />
        <dc:subject>
          <rdf:Bag />
        </dc:subject>
        <dc:date />
        <dc:rights>
          <cc:Agent>
            <dc:title />
          </cc:Agent>
        </dc:rights>
        <dc:publisher>
          <cc:Agent>
            <dc:title />
          </cc:Agent>
        </dc:publisher>
        <dc:identifier />
        <dc:relation />
        <dc:language />
        <dc:coverage />
        <dc:description />
        <dc:contributor>
          <cc:Agent>
            <dc:title />
          </cc:Agent>
        </dc:contributor>
      </cc:Work>
      <cc:Work
         rdf:about="">
        <dc:format>image/svg+xml</dc:format>
        <dc:type
           rdf:resource="http://purl.org/dc/dcmitype/StillImage" />
      </cc:Work>
    </rdf:RDF>
  </metadata>
  <g
     style="display:inline"
     inkscape:groupmode="layer"
     inkscape:label="Icon"
     id="layer1">
    <g
       style="display:none"
       inkscape:label="Baseplate"
       id="layer7"
       inkscape:groupmode="layer">
      <text
         y="19.745117"
         xml:space="preserve"
         x="15.006836"
         style="font-style:normal;font-variant:normal;font-weight:normal;font-stretch:normal;line-height:0%;font-family:'DejaVu Sans';-inkscape-font-specification:'DejaVu Sans';display:inline;fill:#000000;fill-opacity:1;stroke:none;enable-background:new"
         inkscape:label="context"
         id="context"><tspan
           style="font-style:normal;font-variant:normal;font-weight:normal;font-stretch:normal;font-size:18px;line-height:1.25;font-family:'DejaVu Sans';-inkscape-font-specification:'DejaVu Sans'"
           y="19.745117"
           x="15.006836"
           sodipodi:role="line"
           id="tspan3933">apps</tspan></text>
      <text
         y="19.745117"
         xml:space="preserve"
         x="122.48828"
         style="font-style:normal;font-variant:normal;font-weight:bold;font-stretch:normal;line-height:0%;font-family:'DejaVu Sans';-inkscape-font-specification:'DejaVu Sans Bold';text-align:start;writing-mode:lr-tb;text-anchor:start;display:inline;fill:#000000;fill-opacity:1;stroke:none;enable-background:new"
         inkscape:label="icon-name"
         id="icon-name"><tspan
           style="font-style:normal;font-variant:normal;font-weight:bold;font-stretch:normal;font-size:18px;line-height:1.25;font-family:'DejaVu Sans';-inkscape-font-specification:'DejaVu Sans Bold'"
           y="19.745117"
           x="122.48828"
           sodipodi:role="line"
           id="tspan3937">tauon</tspan></text>
      <rect
         style="fill:#eeeeec;fill-opacity:1;fill-rule:nonzero;stroke:none;stroke-width:2;marker:none;visibility:visible;display:inline;overflow:visible;enable-background:accumulate"
         id="rect16x16"
         width="16"
         height="16"
         x="416"
         y="140"
         inkscape:label="16x16" />
      <rect
         style="fill:#d4d4d4;fill-opacity:1;fill-rule:nonzero;stroke:none;stroke-width:2;marker:none;visibility:visible;display:inline;overflow:visible;enable-background:accumulate"
         id="rect24x24"
         width="24"
         height="24"
         x="416"
         y="100"
         inkscape:label="24x24" />
      <rect
         style="fill:#eeeeec;fill-opacity:1;fill-rule:nonzero;stroke:none;stroke-width:2;marker:none;visibility:visible;display:inline;overflow:visible;enable-background:accumulate"
         id="rect32x32"
         width="32"
         height="32"
         x="416"
         y="52"
         inkscape:label="32x32" />
      <rect
         inkscape:label="22x22"
         y="101"
         x="417"
         height="22"
         width="22"
         id="rect22x22"
         style="fill:#eeeeec;fill-opacity:1;fill-rule:nonzero;stroke:none;stroke-width:2;marker:none;visibility:visible;display:inline;overflow:visible;enable-background:accumulate" />
      <rect
         inkscape:label="48x48"
         y="220"
         x="288"
         height="48"
         width="48"
         id="rect48x48"
         style="fill:#eeeeec;fill-opacity:1;fill-rule:nonzero;stroke:none;stroke-width:2;marker:none;visibility:visible;display:inline;overflow:visible;enable-background:accumulate" />
      <rect
         style="fill:#eeeeec;fill-opacity:1;fill-rule:nonzero;stroke:none;stroke-width:2;marker:none;visibility:visible;display:inline;overflow:visible;enable-background:accumulate"
         id="rect256x256"
         width="256"
         height="256"
         x="16"
         y="28"
         inkscape:label="256x256" />
      <rect
         style="fill:#eeeeec;fill-opacity:1;fill-rule:nonzero;stroke:none;stroke-width:2;marker:none;visibility:visible;display:inline;overflow:visible;enable-background:accumulate"
         id="rect64x64"
         width="64"
         height="64"
         x="288"
         y="140"
         inkscape:label="64x64" />
      <rect
         style="fill:#eeeeec;fill-opacity:1;fill-rule:nonzero;stroke:none;stroke-width:2;marker:none;visibility:visible;display:inline;overflow:visible;enable-background:accumulate"
         id="rect96x96"
         width="96"
         height="96"
         x="288"
         y="28"
         inkscape:label="96x96" />
    </g>
    <g
       inkscape:groupmode="layer"
       id="layer4"
       inkscape:label="Shadow"
       style="display:inline"
       sodipodi:insensitive="true">
      <rect
         ry="50"
         y="47"
         x="34"
         height="220"
         width="220"
         id="rect4114"
         style="opacity:0.1;color:#bebebe;fill:#000000;fill-opacity:1;fill-rule:nonzero;stroke:none;stroke-width:0;marker:none;visibility:visible;display:inline;overflow:visible;enable-background:accumulate" />
      <rect
         style="opacity:0.1;color:#bebebe;fill:#000000;fill-opacity:1;fill-rule:nonzero;stroke:none;stroke-width:0;marker:none;visibility:visible;display:inline;overflow:visible;enable-background:accumulate"
         id="rect4120"
         width="30"
         height="30"
         x="417"
         y="54"
         ry="7" />
      <rect
         transform="scale(1,-1)"
         ry="9"
         y="-266"
         x="291"
         height="42"
         width="42"
         id="rect4122"
         style="opacity:0.1;color:#bebebe;fill:#000000;fill-opacity:1;fill-rule:nonzero;stroke:none;stroke-width:0;marker:none;visibility:visible;display:inline;overflow:visible;enable-background:accumulate" />
      <rect
         style="opacity:0.1;color:#bebebe;fill:#000000;fill-opacity:1;fill-rule:nonzero;stroke:none;stroke-width:0;marker:none;visibility:visible;display:inline;overflow:visible;enable-background:accumulate"
         id="rect4124"
         width="88"
         height="88"
         x="292"
         y="33"
         ry="18" />
      <rect
         ry="12.5"
         y="143"
         x="290"
         height="60"
         width="60"
         id="rect4126"
         style="opacity:0.1;color:#bebebe;fill:#000000;fill-opacity:1;fill-rule:nonzero;stroke:none;stroke-width:0;marker:none;visibility:visible;display:inline;overflow:visible;enable-background:accumulate" />
      <path
         id="path4268"
         d="m 422,101 c -2.77,0 -5,2.23 -5,5 l 0,12 c 0,2.77 2.23,5 5,5 l 12,0 c 2.77,0 5,-2.23 5,-5 l 0,-12 c 0,-2.77 -2.23,-5 -5,-5 z"
         style="opacity:0.1;color:#bebebe;fill:#000000;fill-opacity:1;fill-rule:nonzero;stroke:none;stroke-width:0;marker:none;visibility:visible;display:inline;overflow:visible;enable-background:accumulate"
         inkscape:connector-curvature="0"
         sodipodi:nodetypes="sssssssss" />
      <path
         id="path4270"
         d="m 419,140 c -1.662,0 -3,1.338 -3,3 l 0,10 c 0,1.662 1.338,3 3,3 l 10,0 c 1.662,0 3,-1.338 3,-3 l 0,-10 c 0,-1.662 -1.338,-3 -3,-3 z"
         style="opacity:0.1;color:#bebebe;fill:#000000;fill-opacity:1;fill-rule:nonzero;stroke:none;stroke-width:0;marker:none;visibility:visible;display:inline;overflow:visible;enable-background:accumulate"
         inkscape:connector-curvature="0"
         sodipodi:nodetypes="sssssssss" />
    </g>
    <g
       inkscape:groupmode="layer"
       id="layer2"
       inkscape:label="Background"
       style="display:inline">
      <g
         id="g4">
        <path
           style="color:#bebebe;fill:url(#linearGradient4254);fill-opacity:1;fill-rule:nonzero;stroke:none;stroke-width:2;marker:none;visibility:visible;display:inline;overflow:visible;enable-background:accumulate"
           d="M 84 46.5 C 56.568735 46.5 34.5 68.568732 34.5 96 L 34.5 216 C 34.5 243.43127 56.568735 265.5 84 265.5 L 204 265.5 C 231.43127 265.5 253.5 243.43127 253.5 216 L 253.5 96 C 253.5 68.568732 231.43127 46.5 204 46.5 L 84 46.5 z "
           id="path4200" />
        <path
           style="color:#bebebe;display:inline;overflow:visible;visibility:visible;opacity:0.16;fill:#ffffff;fill-opacity:1;fill-rule:nonzero;stroke:none;stroke-width:2;marker:none;enable-background:accumulate"
           d="m 143.99652,46.500005 -0.002,108.649045 -0.003,110.35095 M 34.491644,156.00836 V 216 c 0,27.43127 22.06873,49.5 49.5,49.5 h 59.999996 l 0.005,-218.999996 m -1.2e-4,0 h 59.99512 c 27.43127,0 49.5,22.068736 49.5,49.5 v 60.011106 l -218.999996,-0.003"
           id="path2"
           sodipodi:nodetypes="cssccsscccc" />
      </g>
      <g
         id="g7">
        <path
           style="color:#bebebe;fill:url(#linearGradient4262);fill-opacity:1;fill-rule:nonzero;stroke:none;stroke-width:2;marker:none;visibility:visible;display:inline;overflow:visible;enable-background:accumulate"
           d="M 300 223.5 C 295.28469 223.5 291.5 227.28469 291.5 232 L 291.5 256 C 291.5 260.71531 295.28469 264.5 300 264.5 L 324 264.5 C 328.71531 264.5 332.5 260.71531 332.5 256 L 332.5 232 C 332.5 227.28469 328.71531 223.5 324 223.5 L 300 223.5 z "
           id="path4208" />
        <path
           style="color:#bebebe;display:inline;overflow:visible;visibility:visible;opacity:0.16;fill:#ffffff;fill-opacity:1;fill-rule:nonzero;stroke:none;stroke-width:0.374429;marker:none;enable-background:accumulate"
           d="m 312.00115,223.5 -3.6e-4,20.34069 -4.8e-4,20.65931 m -20.50007,-20.49844 v 11.23131 c 0,5.13554 4.13159,9.26713 9.26712,9.26713 h 11.23288 l 7e-4,-41 m -3e-5,0 h 11.23196 c 5.13554,0 9.26713,4.13159 9.26713,9.26713 v 11.23495 l -41,-4.7e-4"
           id="path6"
           sodipodi:nodetypes="cssccsscccccc" />
      </g>
      <g
         id="g6">
        <path
           style="color:#bebebe;fill:url(#linearGradient4266);fill-opacity:1;fill-rule:nonzero;stroke:none;stroke-width:2;marker:none;visibility:visible;display:inline;overflow:visible;enable-background:accumulate"
           d="M 302.5 142.5 C 295.84498 142.5 290.5 147.84498 290.5 154.5 L 290.5 189.5 C 290.5 196.15502 295.84498 201.5 302.5 201.5 L 337.5 201.5 C 344.15502 201.5 349.5 196.15502 349.5 189.5 L 349.5 154.5 C 349.5 147.84498 344.15502 142.5 337.5 142.5 L 302.5 142.5 z "
           id="path4212" />
        <path
           style="color:#bebebe;display:inline;overflow:visible;visibility:visible;opacity:0.16;fill:#ffffff;fill-opacity:1;fill-rule:nonzero;stroke:none;stroke-width:0.538813;marker:none;enable-background:accumulate"
           d="m 320.00166,142.5 -5.3e-4,29.27075 -6.8e-4,29.72925 m -29.50011,-29.49775 v 16.16213 c 0,7.39016 5.94546,13.33562 13.33562,13.33562 h 16.16439 l 10e-4,-59 m -4e-5,0 h 16.16307 c 7.39016,0 13.33562,5.94546 13.33562,13.33562 v 16.16737 l -59,-6.8e-4"
           id="path5"
           sodipodi:nodetypes="cssccsscccc" />
      </g>
      <g
         id="g5">
        <path
           style="color:#bebebe;fill:url(#linearGradient4264);fill-opacity:1;fill-rule:nonzero;stroke:none;stroke-width:2;marker:none;visibility:visible;display:inline;overflow:visible;enable-background:accumulate"
           d="M 310 32.5 C 300.29745 32.5 292.5 40.297452 292.5 50 L 292.5 102 C 292.5 111.70255 300.29745 119.5 310 119.5 L 362 119.5 C 371.70255 119.5 379.5 111.70255 379.5 102 L 379.5 50 C 379.5 40.297452 371.70255 32.5 362 32.5 L 310 32.5 z "
           id="path4210" />
        <path
           style="color:#bebebe;display:inline;overflow:visible;visibility:visible;opacity:0.16;fill:#ffffff;fill-opacity:1;fill-rule:nonzero;stroke:none;stroke-width:0.794521;marker:none;enable-background:accumulate"
           d="m 336.00193,32.500005 -7.9e-4,43.16195 -0.001,43.838035 M 292.5,76.003315 v 23.8323 c 0,10.897345 8.76702,19.664375 19.66437,19.664375 h 23.83562 l 0.002,-86.999985 m -5e-5,0 h 23.83368 c 10.89735,0 19.66438,8.76703 19.66438,19.66438 v 23.84002 l -87,-0.001"
           id="path4"
           sodipodi:nodetypes="cssccsscccc" />
      </g>
      <g
         id="g8">
        <path
           style="color:#bebebe;fill:url(#linearGradient4260);fill-opacity:1;fill-rule:nonzero;stroke:none;stroke-width:2;marker:none;visibility:visible;display:inline;overflow:visible;enable-background:accumulate"
           d="M 424 53.5 C 420.39346 53.5 417.5 56.393464 417.5 60 L 417.5 76 C 417.5 79.606536 420.39346 82.5 424 82.5 L 440 82.5 C 443.60654 82.5 446.5 79.606536 446.5 76 L 446.5 60 C 446.5 56.393464 443.60654 53.5 440 53.5 L 424 53.5 z "
           id="path4206" />
        <path
           style="color:#bebebe;display:inline;overflow:visible;visibility:visible;opacity:0.16;fill:#ffffff;fill-opacity:1;fill-rule:nonzero;stroke:none;stroke-width:0.26484;marker:none;enable-background:accumulate"
           d="M 432.00081,53.5 432.00056,67.887317 432.00022,82.5 M 417.50017,68.001103 v 7.944098 c 0,3.632455 2.92234,6.554799 6.55479,6.554799 h 7.94521 l 4.9e-4,-29 m -2e-5,0 h 7.94456 c 3.63246,0 6.5548,2.922344 6.5548,6.554799 v 7.946672 l -29,-3.32e-4"
           id="path7"
           sodipodi:nodetypes="cssccsscccccc" />
      </g>
      <g
         id="g9">
        <path
           style="color:#bebebe;fill:url(#linearGradient3870);fill-opacity:1;fill-rule:nonzero;stroke:none;stroke-width:2;marker:none;visibility:visible;display:inline;overflow:visible;enable-background:accumulate"
           d="M 422 101.5 C 419.50301 101.5 417.5 103.50301 417.5 106 L 417.5 118 C 417.5 120.49699 419.50301 122.5 422 122.5 L 434 122.5 C 436.49699 122.5 438.5 120.49699 438.5 118 L 438.5 106 C 438.5 103.50301 436.49699 101.5 434 101.5 L 422 101.5 z "
           id="path4204" />
        <path
           style="color:#bebebe;display:inline;overflow:visible;visibility:visible;opacity:0.16;fill:#ffffff;fill-opacity:1;fill-rule:nonzero;stroke:none;stroke-width:0.191781;marker:none;enable-background:accumulate"
           d="m 428.00059,101.5 -1.8e-4,10.4184 -2.5e-4,10.5816 m -10.50004,-10.4992 v 5.75262 c 0,2.6304 2.11618,4.74658 4.74658,4.74658 h 5.75342 l 3.6e-4,-21 m -2e-5,0 h 5.75296 c 2.6304,0 4.74658,2.11618 4.74658,4.74658 v 5.75448 l -21,-2.3e-4"
           id="path8"
           sodipodi:nodetypes="cssccsscccccc" />
      </g>
      <g
         id="g10">
        <path
           style="color:#bebebe;fill:url(#linearGradient4256);fill-opacity:1;fill-rule:nonzero;stroke:none;stroke-width:2;marker:none;visibility:visible;display:inline;overflow:visible;enable-background:accumulate"
           d="M 419 140.5 C 417.6156 140.5 416.5 141.6156 416.5 143 L 416.5 153 C 416.5 154.3844 417.6156 155.5 419 155.5 L 429 155.5 C 430.3844 155.5 431.5 154.3844 431.5 153 L 431.5 143 C 431.5 141.6156 430.3844 140.5 429 140.5 L 419 140.5 z "
           id="path4202" />
        <path
           style="color:#bebebe;display:inline;overflow:visible;visibility:visible;opacity:0.16;fill:#ffffff;fill-opacity:1;fill-rule:nonzero;stroke:none;stroke-width:0.136986;marker:none;enable-background:accumulate"
           d="m 424.00042,140.5 -1.3e-4,7.44172 -1.8e-4,7.55828 m -7.50002,-7.49943 v 4.10902 c 0,1.87885 0.83674,3.39041 3.39041,3.39041 h 4.10959 l 2.5e-4,-15 m -10e-6,0 h 4.10926 c 1.87885,0 3.39041,1.51156 3.39041,3.39041 v 4.11035 l -15,-1.7e-4"
           id="path9"
           sodipodi:nodetypes="cssccsscccccc" />
      </g>
    </g>
    <g
       inkscape:groupmode="layer"
       id="layer6"
       inkscape:label="Symbols"
       style="display:inline">
      <g
         id="g11"
         transform="matrix(1,0,0,0.99277438,0,0.62140499)">
        <path
           id="path10"
           style="display:inline;opacity:0.2;fill:#000000;fill-opacity:1;stroke:none;stroke-width:15.3338;stroke-linecap:butt;stroke-linejoin:miter;stroke-miterlimit:9.5;stroke-dasharray:none;stroke-opacity:1;enable-background:new"
           d="M 144.0003,87.007277 A 69.999889,70.509509 0 0 0 74,157.51706 69.999889,70.509509 0 0 0 144.0003,228.02623 69.999889,70.509509 0 0 0 214,157.51706 69.999889,70.509509 0 0 0 144.0003,87.007277 Z m 0,46.048903 a 24.282729,24.460999 0 0 1 24.28267,24.46088 24.282729,24.460999 0 0 1 -24.28267,24.46089 24.282729,24.460999 0 0 1 -24.28269,-24.46089 24.282729,24.460999 0 0 1 24.28269,-24.46088 z m 0,20.35165 a 4.0799991,4.1091379 0 0 0 -4.08009,4.10923 4.0799991,4.1091379 0 0 0 4.08009,4.10922 4.0799991,4.1091379 0 0 0 4.08008,-4.10922 4.0799991,4.1091379 0 0 0 -4.08008,-4.10923 z" />
        <path
           id="ellipse2"
           style="display:inline;fill:#ffffff;fill-opacity:1;stroke:none;stroke-width:15.3339;stroke-linecap:butt;stroke-linejoin:miter;stroke-miterlimit:9.5;stroke-dasharray:none;stroke-opacity:1"
           d="M 144.0003,86 A 69.999887,70.509509 0 0 0 74,156.50978 69.999887,70.509509 0 0 0 144.0003,227.01895 69.999887,70.509509 0 0 0 214,156.50978 69.999887,70.509509 0 0 0 144.0003,86 Z m 0,46.0489 a 24.282729,24.460999 0 0 1 24.28267,24.46088 24.282729,24.460999 0 0 1 -24.28267,24.46089 24.282729,24.460999 0 0 1 -24.28269,-24.46089 24.282729,24.460999 0 0 1 24.28269,-24.46088 z m 0,20.35165 a 4.079999,4.1091379 0 0 0 -4.08009,4.10923 4.079999,4.1091379 0 0 0 4.08009,4.10922 4.079999,4.1091379 0 0 0 4.08008,-4.10922 4.079999,4.1091379 0 0 0 -4.08008,-4.10923 z" />
      </g>
      <g
         id="g12">
        <path
           id="path12"
           style="display:inline;enable-background:new;opacity:0.2;fill:#000000;fill-opacity:1;stroke:none;stroke-width:6.11176;stroke-linecap:butt;stroke-linejoin:miter;stroke-miterlimit:9.5;stroke-dasharray:none;stroke-opacity:1"
           d="M 336.00012,49 A 27.999955,28.003804 0 0 0 308,77.00391 27.999955,28.003804 0 0 0 336.00012,105.00758 27.999955,28.003804 0 0 0 364,77.00391 27.999955,28.003804 0 0 0 336.00012,49 Z m 0,18.28894 a 9.7130916,9.715016 0 0 1 9.71307,9.71497 9.7130916,9.715016 0 0 1 -9.71307,9.71497 9.7130916,9.715016 0 0 1 -9.71308,-9.71497 9.7130916,9.715016 0 0 1 9.71308,-9.71497 z m 0,8.08294 a 1.6319996,1.6319996 0 0 0 -1.63204,1.63203 1.6319996,1.6319996 0 0 0 1.63204,1.63203 1.6319996,1.6319996 0 0 0 1.63203,-1.63203 1.6319996,1.6319996 0 0 0 -1.63203,-1.63203 z" />
        <path
           id="path11"
           style="display:inline;fill:#ffffff;fill-opacity:1;stroke:none;stroke-width:6.11176;stroke-linecap:butt;stroke-linejoin:miter;stroke-miterlimit:9.5;stroke-dasharray:none;stroke-opacity:1;enable-background:new"
           d="M 336.00012,48 A 27.999955,28.003804 0 0 0 308,76.00391 27.999955,28.003804 0 0 0 336.00012,104.00758 27.999955,28.003804 0 0 0 364,76.00391 27.999955,28.003804 0 0 0 336.00012,48 Z m 0,18.28894 a 9.7130916,9.715016 0 0 1 9.71307,9.71497 9.7130916,9.715016 0 0 1 -9.71307,9.71497 9.7130916,9.715016 0 0 1 -9.71308,-9.71497 9.7130916,9.715016 0 0 1 9.71308,-9.71497 z m 0,8.08294 a 1.6319996,1.6319996 0 0 0 -1.63204,1.63203 1.6319996,1.6319996 0 0 0 1.63204,1.63203 1.6319996,1.6319996 0 0 0 1.63203,-1.63203 1.6319996,1.6319996 0 0 0 -1.63203,-1.63203 z" />
      </g>
      <g
         id="g22">
        <path
           id="path14"
           style="display:inline;enable-background:new;opacity:0.2;fill:#000000;fill-opacity:1;stroke:none;stroke-width:3.92899;stroke-linecap:butt;stroke-linejoin:miter;stroke-miterlimit:9.5;stroke-dasharray:none;stroke-opacity:1"
           d="M 320.00008,155 A 17.999971,18.002445 0 0 0 302,173.00251 17.999971,18.002445 0 0 0 320.00008,191.00487 17.999971,18.002445 0 0 0 338,173.00251 17.999971,18.002445 0 0 0 320.00008,155 Z m 0,11.75718 a 6.2441303,6.2453674 0 0 1 6.24411,6.24533 6.2441303,6.2453674 0 0 1 -6.24411,6.24534 6.2441303,6.2453674 0 0 1 -6.24413,-6.24534 6.2441303,6.2453674 0 0 1 6.24413,-6.24533 z m 0,5.19617 a 1.0491426,1.0491426 0 0 0 -1.04917,1.04916 1.0491426,1.0491426 0 0 0 1.04917,1.04917 1.0491426,1.0491426 0 0 0 1.04916,-1.04917 1.0491426,1.0491426 0 0 0 -1.04916,-1.04916 z" />
        <path
           id="path13"
           style="display:inline;fill:#ffffff;fill-opacity:1;stroke:none;stroke-width:3.92872;stroke-linecap:butt;stroke-linejoin:miter;stroke-miterlimit:9.5;stroke-dasharray:none;stroke-opacity:1;enable-background:new"
           d="M 320.00008,154 A 17.999971,18.00001 0 0 0 302,172.00007 17.999971,18.00001 0 0 0 320.00008,190 17.999971,18.00001 0 0 0 338,172.00007 17.999971,18.00001 0 0 0 320.00008,154 Z m 0,11.75559 a 6.2441303,6.2445227 0 0 1 6.24411,6.24448 6.2441303,6.2445227 0 0 1 -6.24411,6.2445 6.2441303,6.2445227 0 0 1 -6.24413,-6.2445 6.2441303,6.2445227 0 0 1 6.24413,-6.24448 z m 0,5.19547 a 1.0491426,1.0490007 0 0 0 -1.04917,1.04901 1.0491426,1.0490007 0 0 0 1.04917,1.04903 1.0491426,1.0490007 0 0 0 1.04916,-1.04903 1.0491426,1.0490007 0 0 0 -1.04916,-1.04901 z" />
      </g>
      <g
         id="g23">
        <path
           id="path15"
           style="display:inline;opacity:0.2;fill:#000000;fill-opacity:1;stroke:none;stroke-width:2.8376;stroke-linecap:butt;stroke-linejoin:miter;stroke-miterlimit:9.5;stroke-dasharray:none;stroke-opacity:1;enable-background:new"
           d="M 312.00006,232 A 12.999979,13.001766 0 0 0 299,245.00181 12.999979,13.001766 0 0 0 312.00006,258.00352 12.999979,13.001766 0 0 0 325,245.00181 12.999979,13.001766 0 0 0 312.00006,232 Z m 0,8.4913 a 4.5096497,4.5105431 0 0 1 4.50963,4.51051 4.5096497,4.5105431 0 0 1 -4.50963,4.51053 4.5096497,4.5105431 0 0 1 -4.50965,-4.51053 4.5096497,4.5105431 0 0 1 4.50965,-4.51051 z m 0,3.75279 a 0.7577141,0.7577141 0 0 0 -0.75774,0.75772 0.7577141,0.7577141 0 0 0 0.75774,0.75774 0.7577141,0.7577141 0 0 0 0.75772,-0.75774 0.7577141,0.7577141 0 0 0 -0.75772,-0.75772 z" />
        <path
           id="path16"
           style="display:inline;fill:#ffffff;fill-opacity:1;stroke:none;stroke-width:2.83741;stroke-linecap:butt;stroke-linejoin:miter;stroke-miterlimit:9.5;stroke-dasharray:none;stroke-opacity:1;enable-background:new"
           d="M 312.00006,231 A 12.999979,13.000007 0 0 0 299,244.00005 12.999979,13.000007 0 0 0 312.00006,257 12.999979,13.000007 0 0 0 325,244.00005 12.999979,13.000007 0 0 0 312.00006,231 Z m 0,8.49015 a 4.5096497,4.5099331 0 0 1 4.50963,4.5099 4.5096497,4.5099331 0 0 1 -4.50963,4.50992 4.5096497,4.5099331 0 0 1 -4.50965,-4.50992 4.5096497,4.5099331 0 0 1 4.50965,-4.5099 z m 0,3.75228 a 0.7577141,0.75761162 0 0 0 -0.75774,0.75762 0.7577141,0.75761162 0 0 0 0.75774,0.75763 0.7577141,0.75761162 0 0 0 0.75772,-0.75763 0.7577141,0.75761162 0 0 0 -0.75772,-0.75762 z" />
      </g>
      <g
         id="g26">
        <path
           id="path17"
           style="display:inline;opacity:0.2;fill:#000000;fill-opacity:1;stroke:none;stroke-width:1.09139;stroke-linecap:butt;stroke-linejoin:miter;stroke-miterlimit:9.5;stroke-dasharray:none;stroke-opacity:1;enable-background:new"
           d="M 424.00002,144 A 4.9999919,5.0006792 0 0 0 419,149.0007 4.9999919,5.0006792 0 0 0 424.00002,154.00135 4.9999919,5.0006792 0 0 0 429,149.0007 4.9999919,5.0006792 0 0 0 424.00002,144 Z m 0,3.26588 a 1.7344806,1.7348243 0 0 1 1.73448,1.73482 1.7344806,1.7348243 0 0 1 -1.73448,1.73481 1.7344806,1.7348243 0 0 1 -1.73448,-1.73481 1.7344806,1.7348243 0 0 1 1.73448,-1.73482 z m 0,1.44338 a 0.2914285,0.2914285 0 0 0 -0.29143,0.29144 0.2914285,0.2914285 0 0 0 0.29143,0.29143 0.2914285,0.2914285 0 0 0 0.29144,-0.29143 0.2914285,0.2914285 0 0 0 -0.29144,-0.29144 z" />
        <path
           id="path18"
           style="display:inline;fill:#ffffff;fill-opacity:1;stroke:none;stroke-width:1.09131;stroke-linecap:butt;stroke-linejoin:miter;stroke-miterlimit:9.5;stroke-dasharray:none;stroke-opacity:1;enable-background:new"
           d="M 424.00002,143 A 4.9999919,5.0000028 0 0 0 419,148.00002 4.9999919,5.0000028 0 0 0 424.00002,153 4.9999919,5.0000028 0 0 0 429,148.00002 4.9999919,5.0000028 0 0 0 424.00002,143 Z m 0,3.26544 a 1.7344806,1.7345896 0 0 1 1.73448,1.73458 1.7344806,1.7345896 0 0 1 -1.73448,1.73458 1.7344806,1.7345896 0 0 1 -1.73448,-1.73458 1.7344806,1.7345896 0 0 1 1.73448,-1.73458 z m 0,1.44319 a 0.2914285,0.29138908 0 0 0 -0.29143,0.29139 0.2914285,0.29138908 0 0 0 0.29143,0.2914 0.2914285,0.29138908 0 0 0 0.29144,-0.2914 0.2914285,0.29138908 0 0 0 -0.29144,-0.29139 z" />
      </g>
      <g
         id="g25">
        <path
           id="path19"
           style="display:inline;opacity:0.2;fill:#000000;fill-opacity:1;stroke:none;stroke-width:1.52794;stroke-linecap:butt;stroke-linejoin:miter;stroke-miterlimit:9.5;stroke-dasharray:none;stroke-opacity:1;enable-background:new"
           d="M 428.00003,106 A 6.9999887,7.0009508 0 0 0 421,113.00098 6.9999887,7.0009508 0 0 0 428.00003,120.00189 6.9999887,7.0009508 0 0 0 435,113.00098 6.9999887,7.0009508 0 0 0 428.00003,106 Z m 0,4.57224 a 2.4282729,2.428754 0 0 1 2.42827,2.42874 2.4282729,2.428754 0 0 1 -2.42827,2.42874 2.4282729,2.428754 0 0 1 -2.42827,-2.42874 2.4282729,2.428754 0 0 1 2.42827,-2.42874 z m 0,2.02073 a 0.4079999,0.4079999 0 0 0 -0.40801,0.40801 0.4079999,0.4079999 0 0 0 0.40801,0.40801 0.4079999,0.4079999 0 0 0 0.40801,-0.40801 0.4079999,0.4079999 0 0 0 -0.40801,-0.40801 z" />
        <path
           id="path20"
           style="display:inline;fill:#ffffff;fill-opacity:1;stroke:none;stroke-width:1.52784;stroke-linecap:butt;stroke-linejoin:miter;stroke-miterlimit:9.5;stroke-dasharray:none;stroke-opacity:1;enable-background:new"
           d="M 428.00003,105 A 6.9999885,7.0000037 0 0 0 421,112.00003 6.9999885,7.0000037 0 0 0 428.00003,119 6.9999885,7.0000037 0 0 0 435,112.00003 6.9999885,7.0000037 0 0 0 428.00003,105 Z m 0,4.57162 a 2.4282728,2.4284254 0 0 1 2.42827,2.42841 2.4282728,2.4284254 0 0 1 -2.42827,2.42841 2.4282728,2.4284254 0 0 1 -2.42827,-2.42841 2.4282728,2.4284254 0 0 1 2.42827,-2.42841 z m 0,2.02046 a 0.40799989,0.40794471 0 0 0 -0.40801,0.40795 0.40799989,0.40794471 0 0 0 0.40801,0.40795 0.40799989,0.40794471 0 0 0 0.40801,-0.40795 0.40799989,0.40794471 0 0 0 -0.40801,-0.40795 z" />
      </g>
      <g
         id="g24">
        <path
           id="path21"
           style="display:inline;opacity:0.2;fill:#000000;fill-opacity:1;stroke:none;stroke-width:2.18277;stroke-linecap:butt;stroke-linejoin:miter;stroke-miterlimit:9.5;stroke-dasharray:none;stroke-opacity:1;enable-background:new"
           d="M 432.00004,59 A 9.9999839,10.001358 0 0 0 422,69.00139 9.9999839,10.001358 0 0 0 432.00004,79.00271 9.9999839,10.001358 0 0 0 442,69.00139 9.9999839,10.001358 0 0 0 432.00004,59 Z m 0,6.53177 a 3.4689613,3.4696486 0 0 1 3.46895,3.46962 3.4689613,3.4696486 0 0 1 -3.46895,3.46964 3.4689613,3.4696486 0 0 1 -3.46896,-3.46964 3.4689613,3.4696486 0 0 1 3.46896,-3.46962 z m 0,2.88676 a 0.582857,0.582857 0 0 0 -0.58287,0.58286 0.582857,0.582857 0 0 0 0.58287,0.58288 0.582857,0.582857 0 0 0 0.58287,-0.58288 0.582857,0.582857 0 0 0 -0.58287,-0.58286 z" />
        <path
           id="path22"
           style="display:inline;fill:#ffffff;fill-opacity:1;stroke:none;stroke-width:2.18262;stroke-linecap:butt;stroke-linejoin:miter;stroke-miterlimit:9.5;stroke-dasharray:none;stroke-opacity:1;enable-background:new"
           d="M 432.00004,58 A 9.9999839,10.000006 0 0 0 422,68.00004 9.9999839,10.000006 0 0 0 432.00004,78 9.9999839,10.000006 0 0 0 442,68.00004 9.9999839,10.000006 0 0 0 432.00004,58 Z m 0,6.53088 a 3.4689613,3.4691793 0 0 1 3.46895,3.46916 3.4689613,3.4691793 0 0 1 -3.46895,3.46917 3.4689613,3.4691793 0 0 1 -3.46896,-3.46917 3.4689613,3.4691793 0 0 1 3.46896,-3.46916 z m 0,2.88638 a 0.582857,0.58277817 0 0 0 -0.58287,0.58278 0.582857,0.58277817 0 0 0 0.58287,0.58279 0.582857,0.58277817 0 0 0 0.58287,-0.58279 0.582857,0.58277817 0 0 0 -0.58287,-0.58278 z" />
      </g>
    </g>
    <g
       inkscape:groupmode="layer"
       id="layer5"
       inkscape:label="Highlights"
       style="display:inline"
       sodipodi:insensitive="true">
      <path
         style="opacity:0.12999998;color:#bebebe;fill:#ffffff;fill-opacity:1;fill-rule:nonzero;stroke:none;stroke-width:0;marker:none;visibility:visible;display:inline;overflow:visible;enable-background:accumulate"
         d="M 84,47 C 56.836703,47 35,68.836703 35,96 l 0,1 C 35,69.836703 56.836703,48 84,48 l 120,0 c 27.1633,0 49,21.836703 49,49 l 0,-1 C 253,68.836703 231.1633,47 204,47 L 84,47 z"
         id="rect3894"
         inkscape:connector-curvature="0" />
      <path
         style="opacity:0.12999998;color:#bebebe;fill:#ffffff;fill-opacity:1;fill-rule:nonzero;stroke:none;stroke-width:0;marker:none;visibility:visible;display:inline;overflow:visible;enable-background:accumulate"
         d="m 419,141 c -1.1253,0 -2,0.8747 -2,2 l 0,1 c 0,-1.1253 0.8747,-2 2,-2 l 10,0 c 1.1253,0 2,0.8747 2,2 l 0,-1 c 0,-1.1253 -0.8747,-2 -2,-2 l -10,0 z"
         id="rect3896"
         inkscape:connector-curvature="0" />
      <path
         style="opacity:0.12999998;color:#bebebe;fill:#ffffff;fill-opacity:1;fill-rule:nonzero;stroke:none;stroke-width:0;marker:none;visibility:visible;display:inline;overflow:visible;enable-background:accumulate"
         d="m 422,102 c -2.2333,0 -4,1.7667 -4,4 l 0,1 c 0,-2.2333 1.7667,-4 4,-4 l 12,0 c 2.2333,0 4,1.7667 4,4 l 0,-1 c 0,-2.2333 -1.7667,-4 -4,-4 l -12,0 z"
         id="rect3898"
         inkscape:connector-curvature="0" />
      <path
         style="opacity:0.12999998;color:#bebebe;fill:#ffffff;fill-opacity:1;fill-rule:nonzero;stroke:none;stroke-width:0;marker:none;visibility:visible;display:inline;overflow:visible;enable-background:accumulate"
         d="m 424,54 c -3.3413,0 -6,2.658703 -6,6 l 0,1 c 0,-3.341297 2.6587,-6 6,-6 l 16,0 c 3.3413,0 6,2.658703 6,6 l 0,-1 c 0,-3.341297 -2.6587,-6 -6,-6 l -16,0 z"
         id="rect3900"
         inkscape:connector-curvature="0" />
      <path
         style="opacity:0.12999998;color:#bebebe;fill:#ffffff;fill-opacity:1;fill-rule:nonzero;stroke:none;stroke-width:0;marker:none;visibility:visible;display:inline;overflow:visible;enable-background:accumulate"
         d="m 300,224 c -4.4493,0 -8,3.5507 -8,8 l 0,1 c 0,-4.4493 3.5507,-8 8,-8 l 24,0 c 4.4493,0 8,3.5507 8,8 l 0,-1 c 0,-4.4493 -3.5507,-8 -8,-8 l -24,0 z"
         id="rect3902"
         inkscape:connector-curvature="0" />
      <path
         style="opacity:0.12999998;color:#bebebe;fill:#ffffff;fill-opacity:1;fill-rule:nonzero;stroke:none;stroke-width:0;marker:none;visibility:visible;display:inline;overflow:visible;enable-background:accumulate"
         d="m 310,33 c -9.4353,0 -17,7.564703 -17,17 l 0,1 c 0,-9.435297 7.5647,-17 17,-17 l 52,0 c 9.4353,0 17,7.564703 17,17 l 0,-1 c 0,-9.435297 -7.5647,-17 -17,-17 l -52,0 z"
         id="rect3904"
         inkscape:connector-curvature="0" />
      <path
         style="opacity:0.12999998;color:#bebebe;fill:#ffffff;fill-opacity:1;fill-rule:nonzero;stroke:none;stroke-width:0;marker:none;visibility:visible;display:inline;overflow:visible;enable-background:accumulate"
         d="m 302.5,143 c -6.3883,0 -11.5,5.1117 -11.5,11.5 l 0,1 c 0,-6.3883 5.1117,-11.5 11.5,-11.5 l 35,0 c 6.3883,0 11.5,5.1117 11.5,11.5 l 0,-1 c 0,-6.3883 -5.1117,-11.5 -11.5,-11.5 l -35,0 z"
         id="rect3906"
         inkscape:connector-curvature="0" />
      <path
         id="path4085"
         d="m 204,266 c 27.1633,0 49,-21.8367 49,-49 l 0,-1 c 0,27.1633 -21.8367,49 -49,49 L 84,265 C 56.8367,265 35,243.1633 35,216 l 0,1 c 0,27.1633 21.8367,49 49,49 l 120,0 z"
         style="opacity:0.5;color:#bebebe;fill:#000000;fill-opacity:1;fill-rule:nonzero;stroke:none;stroke-width:0;marker:none;visibility:visible;display:inline;overflow:visible;enable-background:accumulate"
         inkscape:connector-curvature="0" />
      <path
         id="path4087"
         d="m 429,156 c 1.1253,0 2,-0.8747 2,-2 l 0,-1 c 0,1.1253 -0.8747,2 -2,2 l -10,0 c -1.1253,0 -2,-0.8747 -2,-2 l 0,1 c 0,1.1253 0.8747,2 2,2 l 10,0 z"
         style="opacity:0.3;color:#bebebe;fill:#000000;fill-opacity:1;fill-rule:nonzero;stroke:none;stroke-width:0;marker:none;visibility:visible;display:inline;overflow:visible;enable-background:accumulate"
         inkscape:connector-curvature="0" />
      <path
         id="path4089"
         d="m 434,123 c 2.2333,0 4,-1.7667 4,-4 l 0,-1 c 0,2.2333 -1.7667,4 -4,4 l -12,0 c -2.2333,0 -4,-1.7667 -4,-4 l 0,1 c 0,2.2333 1.7667,4 4,4 l 12,0 z"
         style="opacity:0.3;color:#bebebe;fill:#000000;fill-opacity:1;fill-rule:nonzero;stroke:none;stroke-width:0;marker:none;visibility:visible;display:inline;overflow:visible;enable-background:accumulate"
         inkscape:connector-curvature="0" />
      <path
         id="path4091"
         d="m 440,83 c 3.3413,0 6,-2.6587 6,-6 l 0,-1 c 0,3.3413 -2.6587,6 -6,6 l -16,0 c -3.3413,0 -6,-2.6587 -6,-6 l 0,1 c 0,3.3413 2.6587,6 6,6 l 16,0 z"
         style="opacity:0.5;color:#bebebe;fill:#000000;fill-opacity:1;fill-rule:nonzero;stroke:none;stroke-width:0;marker:none;visibility:visible;display:inline;overflow:visible;enable-background:accumulate"
         inkscape:connector-curvature="0" />
      <path
         id="path4093"
         d="m 324,265 c 4.4493,0 8,-3.5507 8,-8 l 0,-1 c 0,4.4493 -3.5507,8 -8,8 l -24,0 c -4.4493,0 -8,-3.5507 -8,-8 l 0,1 c 0,4.4493 3.5507,8 8,8 l 24,0 z"
         style="opacity:0.5;color:#bebebe;fill:#000000;fill-opacity:1;fill-rule:nonzero;stroke:none;stroke-width:0;marker:none;visibility:visible;display:inline;overflow:visible;enable-background:accumulate"
         inkscape:connector-curvature="0" />
      <path
         id="path4095"
         d="m 362,120 c 9.4353,0 17,-7.5647 17,-17 l 0,-1 c 0,9.4353 -7.5647,17 -17,17 l -52,0 c -9.4353,0 -17,-7.5647 -17,-17 l 0,1 c 0,9.4353 7.5647,17 17,17 l 52,0 z"
         style="opacity:0.5;color:#bebebe;fill:#000000;fill-opacity:1;fill-rule:nonzero;stroke:none;stroke-width:0;marker:none;visibility:visible;display:inline;overflow:visible;enable-background:accumulate"
         inkscape:connector-curvature="0" />
      <path
         id="path4097"
         d="m 337.5,202 c 6.3883,0 11.5,-5.1117 11.5,-11.5 l 0,-1 c 0,6.3883 -5.1117,11.5 -11.5,11.5 l -35,0 c -6.3883,0 -11.5,-5.1117 -11.5,-11.5 l 0,1 c 0,6.3883 5.1117,11.5 11.5,11.5 l 35,0 z"
         style="opacity:0.5;color:#bebebe;fill:#000000;fill-opacity:1;fill-rule:nonzero;stroke:none;stroke-width:0;marker:none;visibility:visible;display:inline;overflow:visible;enable-background:accumulate"
         inkscape:connector-curvature="0" />
      <path
         inkscape:connector-curvature="0"
         id="path4280"
         d="M 84,265 C 56.836703,265 35,243.1633 35,216 l 0,-1 c 0,27.1633 21.836703,49 49,49 l 120,0 c 27.1633,0 49,-21.8367 49,-49 l 0,1 c 0,27.1633 -21.8367,49 -49,49 l -120,0 z"
         style="opacity:0.1;color:#bebebe;fill:#ffffff;fill-opacity:1;fill-rule:nonzero;stroke:none;stroke-width:0;marker:none;visibility:visible;display:inline;overflow:visible;enable-background:accumulate" />
      <path
         style="opacity:0.1;color:#bebebe;fill:#ffffff;fill-opacity:1;fill-rule:nonzero;stroke:none;stroke-width:0;marker:none;visibility:visible;display:inline;overflow:visible;enable-background:accumulate"
         d="m 300,264 c -4.4493,0 -8,-3.5507 -8,-8 l 0,-1 c 0,4.4493 3.5507,8 8,8 l 24,0 c 4.4493,0 8,-3.5507 8,-8 l 0,1 c 0,4.4493 -3.5507,8 -8,8 l -24,0 z"
         id="path4294"
         inkscape:connector-curvature="0" />
      <path
         style="opacity:0.1;color:#bebebe;fill:#ffffff;fill-opacity:1;fill-rule:nonzero;stroke:none;stroke-width:0;marker:none;visibility:visible;display:inline;overflow:visible;enable-background:accumulate"
         d="m 302.5,201 c -6.3883,0 -11.5,-5.1117 -11.5,-11.5 l 0,-1 c 0,6.3883 5.1117,11.5 11.5,11.5 l 35,0 c 6.3883,0 11.5,-5.1117 11.5,-11.5 l 0,1 c 0,6.3883 -5.1117,11.5 -11.5,11.5 l -35,0 z"
         id="path4296"
         inkscape:connector-curvature="0" />
      <path
         style="opacity:0.1;color:#bebebe;fill:#ffffff;fill-opacity:1;fill-rule:nonzero;stroke:none;stroke-width:0;marker:none;visibility:visible;display:inline;overflow:visible;enable-background:accumulate"
         d="m 310,119 c -9.4353,0 -17,-7.5647 -17,-17 l 0,-1 c 0,9.4353 7.5647,17 17,17 l 52,0 c 9.4353,0 17,-7.5647 17,-17 l 0,1 c 0,9.4353 -7.5647,17 -17,17 l -52,0 z"
         id="path4298"
         inkscape:connector-curvature="0" />
      <path
         style="opacity:0.1;color:#bebebe;fill:#ffffff;fill-opacity:1;fill-rule:nonzero;stroke:none;stroke-width:0;marker:none;visibility:visible;display:inline;overflow:visible;enable-background:accumulate"
         d="m 424,82 c -3.3413,0 -6,-2.658703 -6,-6 l 0,-1 c 0,3.341297 2.6587,6 6,6 l 16,0 c 3.3413,0 6,-2.658703 6,-6 l 0,1 c 0,3.341297 -2.6587,6 -6,6 l -16,0 z"
         id="path4300"
         inkscape:connector-curvature="0" />
      <path
         style="opacity:0.1;color:#bebebe;fill:#ffffff;fill-opacity:1;fill-rule:nonzero;stroke:none;stroke-width:0;marker:none;visibility:visible;display:inline;overflow:visible;enable-background:accumulate"
         d="m 422,122 c -2.2333,0 -4,-1.7667 -4,-4 l 0,-1 c 0,2.2333 1.7667,4 4,4 l 12,0 c 2.2333,0 4,-1.7667 4,-4 l 0,1 c 0,2.2333 -1.7667,4 -4,4 l -12,0 z"
         id="path4302"
         inkscape:connector-curvature="0" />
      <path
         style="opacity:0.1;color:#bebebe;fill:#ffffff;fill-opacity:1;fill-rule:nonzero;stroke:none;stroke-width:0;marker:none;visibility:visible;display:inline;overflow:visible;enable-background:accumulate"
         d="m 419,154.5 c -1.1253,0 -2,-0.8747 -2,-2 l 0,-1 c 0,1.1253 0.8747,2 2,2 l 10,0 c 1.1253,0 2,-0.8747 2,-2 l 0,1 c 0,1.1253 -0.8747,2 -2,2 l -10,0 z"
         id="path4304"
         inkscape:connector-curvature="0" />
    </g>
    <g
       inkscape:groupmode="layer"
       id="layer3"
       inkscape:label="Border"
       style="display:inline"
       sodipodi:insensitive="true">
      <path
         style="opacity:0.41000001;color:#bebebe;fill:#000000;fill-opacity:1;fill-rule:nonzero;stroke:none;stroke-width:0;marker:none;visibility:visible;display:inline;overflow:visible;enable-background:accumulate"
         d="m 422,101 c -2.77,0 -5,2.23 -5,5 l 0,12 c 0,2.77 2.23,5 5,5 l 12,0 c 2.77,0 5,-2.23 5,-5 l 0,-12 c 0,-2.77 -2.23,-5 -5,-5 l -12,0 z m 0,1 12,0 c 2.2333,0 4,1.7667 4,4 l 0,12 c 0,2.2333 -1.7667,4 -4,4 l -12,0 c -2.2333,0 -4,-1.7667 -4,-4 l 0,-12 c 0,-2.2333 1.7667,-4 4,-4 z"
         id="rect4099"
         inkscape:connector-curvature="0" />
      <path
         style="opacity:0.41000001;color:#bebebe;fill:#000000;fill-opacity:1;fill-rule:nonzero;stroke:none;stroke-width:0;marker:none;visibility:visible;display:inline;overflow:visible;enable-background:accumulate"
         d="m 424,53 c -3.878,0 -7,3.122 -7,7 l 0,16 c 0,3.878 3.122,7 7,7 l 16,0 c 3.878,0 7,-3.122 7,-7 l 0,-16 c 0,-3.878 -3.122,-7 -7,-7 l -16,0 z m 0,1 16,0 c 3.3413,0 6,2.658703 6,6 l 0,16 c 0,3.341297 -2.6587,6 -6,6 l -16,0 c -3.3413,0 -6,-2.658703 -6,-6 l 0,-16 c 0,-3.341297 2.6587,-6 6,-6 z"
         id="rect4151"
         inkscape:connector-curvature="0" />
      <path
         style="opacity:0.41000001;color:#bebebe;fill:#000000;fill-opacity:1;fill-rule:nonzero;stroke:none;stroke-width:0;marker:none;visibility:visible;display:inline;overflow:visible;enable-background:accumulate"
         d="m 419,140 c -1.662,0 -3,1.338 -3,3 l 0,10 c 0,1.662 1.338,3 3,3 l 10,0 c 1.662,0 3,-1.338 3,-3 l 0,-10 c 0,-1.662 -1.338,-3 -3,-3 l -10,0 z m 0,1 10,0 c 1.1253,0 2,0.8747 2,2 l 0,10 c 0,1.1253 -0.8747,2 -2,2 l -10,0 c -1.1253,0 -2,-0.8747 -2,-2 l 0,-10 c 0,-1.1253 0.8747,-2 2,-2 z"
         id="rect4095"
         inkscape:connector-curvature="0" />
      <path
         style="opacity:0.41000001;color:#bebebe;fill:#000000;fill-opacity:1;fill-rule:nonzero;stroke:none;stroke-width:0;marker:none;visibility:visible;display:inline;overflow:visible;enable-background:accumulate"
         d="m 300,223 c -4.986,0 -9,4.014 -9,9 l 0,24 c 0,4.986 4.014,9 9,9 l 24,0 c 4.986,0 9,-4.014 9,-9 l 0,-24 c 0,-4.986 -4.014,-9 -9,-9 l -24,0 z m 0,1 24,0 c 4.4493,0 8,3.5507 8,8 l 0,24 c 0,4.4493 -3.5507,8 -8,8 l -24,0 c -4.4493,0 -8,-3.5507 -8,-8 l 0,-24 c 0,-4.4493 3.5507,-8 8,-8 z"
         id="rect4783"
         inkscape:connector-curvature="0" />
      <path
         style="opacity:0.41000001;color:#bebebe;fill:#000000;fill-opacity:1;fill-rule:nonzero;stroke:none;stroke-width:0;marker:none;visibility:visible;display:inline;overflow:visible;enable-background:accumulate"
         d="m 302.5,142 c -6.925,0 -12.5,5.575 -12.5,12.5 l 0,35 c 0,6.925 5.575,12.5 12.5,12.5 l 35,0 c 6.925,0 12.5,-5.575 12.5,-12.5 l 0,-35 c 0,-6.925 -5.575,-12.5 -12.5,-12.5 l -35,0 z m 0,1 35,0 c 6.3883,0 11.5,5.1117 11.5,11.5 l 0,35 c 0,6.3883 -5.1117,11.5 -11.5,11.5 l -35,0 c -6.3883,0 -11.5,-5.1117 -11.5,-11.5 l 0,-35 c 0,-6.3883 5.1117,-11.5 11.5,-11.5 z"
         id="rect4515"
         inkscape:connector-curvature="0" />
      <path
         style="opacity:0.41000001;color:#bebebe;fill:#000000;fill-opacity:1;fill-rule:nonzero;stroke:none;stroke-width:0;marker:none;visibility:visible;display:inline;overflow:visible;enable-background:accumulate"
         d="m 310,32 c -9.972,0 -18,8.028 -18,18 l 0,52 c 0,9.972 8.028,18 18,18 l 52,0 c 9.972,0 18,-8.028 18,-18 l 0,-52 c 0,-9.972 -8.028,-18 -18,-18 l -52,0 z m 0,1 52,0 c 9.4353,0 17,7.564703 17,17 l 0,52 c 0,9.4353 -7.5647,17 -17,17 l -52,0 c -9.4353,0 -17,-7.5647 -17,-17 l 0,-52 c 0,-9.435297 7.5647,-17 17,-17 z"
         id="rect4511"
         inkscape:connector-curvature="0" />
      <path
         style="opacity:0.41000001;color:#bebebe;fill:#000000;fill-opacity:1;fill-rule:nonzero;stroke:none;stroke-width:0;marker:none;visibility:visible;display:inline;overflow:visible;enable-background:accumulate"
         d="M 84,46 C 56.3,46 34,68.3 34,96 l 0,120 c 0,27.7 22.3,50 50,50 l 120,0 c 27.7,0 50,-22.3 50,-50 L 254,96 C 254,68.3 231.7,46 204,46 L 84,46 z m 0,1 120,0 c 27.1633,0 49,21.836703 49,49 l 0,120 c 0,27.1633 -21.8367,49 -49,49 L 84,265 C 56.836703,265 35,243.1633 35,216 L 35,96 C 35,68.836703 56.836703,47 84,47 z"
         id="rect4040"
         inkscape:connector-curvature="0" />
    </g>
  </g>
</svg>
